<svg width="146" height="17" viewBox="0 0 146 17" fill="none" xmlns="http://www.w3.org/2000/svg">
<path d="M7.23189 16L3.61989 4.23999H3.53589C3.54989 4.51999 3.57089 4.93999 3.59889 5.49999C3.62689 6.05999 3.65489 6.66199 3.68289 7.30599C3.71089 7.93599 3.72489 8.50999 3.72489 9.02799V16H0.889893V1.00599H5.21589L8.76489 12.472H8.82789L12.5869 1.00599H16.9129V16H13.9519V8.90199C13.9519 8.42599 13.9589 7.87999 13.9729 7.26399C14.0009 6.64799 14.0219 6.06699 14.0359 5.52099C14.0639 4.96099 14.0849 4.54099 14.0989 4.26099H14.0149L10.1509 16H7.23189Z" fill="#FCFCFC"/>
<path d="M30.9274 16L29.8354 12.43H24.3754L23.2834 16H19.8604L25.1524 0.942994H29.0374L34.3504 16H30.9274ZM27.9874 6.27699C27.9174 6.03899 27.8264 5.73799 27.7144 5.37399C27.6024 5.00999 27.4904 4.63899 27.3784 4.26099C27.2664 3.88299 27.1754 3.55399 27.1054 3.27399C27.0354 3.55399 26.9374 3.90399 26.8114 4.32399C26.6994 4.72999 26.5874 5.12199 26.4754 5.49999C26.3774 5.86399 26.3004 6.12299 26.2444 6.27699L25.1734 9.76299H29.0794L27.9874 6.27699Z" fill="#FCFCFC"/>
<path d="M49.1645 16H45.9935V3.65199H42.3185C42.2345 4.29599 42.1435 4.99599 42.0455 5.75199C41.9615 6.50799 41.8635 7.27799 41.7515 8.06199C41.6535 8.83199 41.5485 9.56699 41.4365 10.267C41.3245 10.953 41.2125 11.562 41.1005 12.094C40.9185 12.962 40.6735 13.704 40.3655 14.32C40.0715 14.936 39.6585 15.405 39.1265 15.727C38.6085 16.049 37.9295 16.21 37.0895 16.21C36.8095 16.21 36.5435 16.189 36.2915 16.147C36.0395 16.105 35.8015 16.049 35.5775 15.979V13.375C35.7595 13.431 35.9345 13.48 36.1025 13.522C36.2845 13.564 36.4805 13.585 36.6905 13.585C36.9705 13.585 37.2015 13.494 37.3835 13.312C37.5655 13.13 37.7265 12.822 37.8665 12.388C38.0065 11.94 38.1465 11.324 38.2865 10.54C38.3565 10.204 38.4405 9.72799 38.5385 9.11199C38.6365 8.48199 38.7485 7.74699 38.8745 6.90699C39.0145 6.05299 39.1545 5.12899 39.2945 4.13499C39.4345 3.12699 39.5675 2.08399 39.6935 1.00599H49.1645V16Z" fill="#FCFCFC"/>
<path d="M73.3589 8.48199C73.3589 9.64399 73.2259 10.701 72.9599 11.653C72.6939 12.591 72.2809 13.403 71.7209 14.089C71.1749 14.775 70.4819 15.3 69.6419 15.664C68.8019 16.028 67.8149 16.21 66.6809 16.21C65.2809 16.21 64.1049 15.937 63.1529 15.391C62.2149 14.831 61.4869 14.054 60.9689 13.06C60.4649 12.052 60.1569 10.876 60.0449 9.53199H57.1679V16H53.9969V1.00599H57.1679V6.88599H60.1079C60.2619 5.63999 60.5979 4.56199 61.1159 3.65199C61.6479 2.72799 62.3759 2.02099 63.2999 1.53099C64.2239 1.02699 65.3579 0.774994 66.7019 0.774994C68.2139 0.774994 69.4599 1.09699 70.4399 1.74099C71.4339 2.37099 72.1689 3.26699 72.6449 4.42899C73.1209 5.57699 73.3589 6.92799 73.3589 8.48199ZM63.2999 8.48199C63.2999 9.53199 63.4189 10.435 63.6569 11.191C63.8949 11.947 64.2659 12.528 64.7699 12.934C65.2739 13.34 65.9109 13.543 66.6809 13.543C67.4789 13.543 68.1299 13.34 68.6339 12.934C69.1379 12.528 69.5019 11.947 69.7259 11.191C69.9639 10.435 70.0829 9.53199 70.0829 8.48199C70.0829 7.43199 69.9639 6.52899 69.7259 5.77299C69.5019 5.01699 69.1379 4.43599 68.6339 4.02999C68.1439 3.62399 67.5069 3.42099 66.7229 3.42099C65.9389 3.42099 65.2879 3.62399 64.7699 4.02999C64.2659 4.43599 63.8949 5.01699 63.6569 5.77299C63.4189 6.52899 63.2999 7.43199 63.2999 8.48199Z" fill="#FCFCFC"/>
<path d="M82.6627 16H79.4917V3.65199H75.4177V1.00599H86.7367V3.65199H82.6627V16Z" fill="#FCFCFC"/>
<path d="M90.0989 1.00599H92.9549V8.25099C92.9549 8.60099 92.9479 8.99299 92.9339 9.42699C92.9199 9.86099 92.9059 10.288 92.8919 10.708C92.8779 11.114 92.8639 11.471 92.8499 11.779C92.8359 12.073 92.8219 12.276 92.8079 12.388H92.8709L99.8009 1.00599H103.602V16H100.767V8.79699C100.767 8.41899 100.774 8.00599 100.788 7.55799C100.802 7.09599 100.816 6.65499 100.83 6.23499C100.858 5.81499 100.879 5.45099 100.893 5.14299C100.921 4.82099 100.942 4.61099 100.956 4.51299H100.872L93.9209 16H90.0989V1.00599Z" fill="#FCFCFC"/>
<path d="M120.722 16H117.551V9.53199H111.608V16H108.437V1.00599H111.608V6.88599H117.551V1.00599H120.722V16Z" fill="#FCFCFC"/>
<path d="M130.207 1.32099H133.336L139.195 16H135.94L134.68 12.808H128.863L127.603 16H124.327L130.207 1.32099ZM133.84 10.267L131.761 4.68099L129.682 10.267H133.84Z" fill="#2A85FF"/>
<path d="M142.018 1.32099H145.21V16H142.018V1.32099Z" fill="#2A85FF"/>
</svg>
