<svg xmlns="http://www.w3.org/2000/svg" width="220" height="220" viewBox="0 0 220 220" fill="none">
  <circle cx="110" cy="110" r="100" fill="url(#paint0_linear_19536_2507)"/>
  <path d="M94.169 130.898L85.1426 163.025L105.937 135.689L94.169 130.898Z" fill="url(#paint1_linear_19536_2507)"/>
  <path d="M85.1431 163.024L76.9102 123.871L185.832 30.6602L94.1695 130.897L85.1431 163.024Z" fill="url(#paint2_linear_19536_2507)"/>
  <path d="M76.9095 123.871L17.0723 99.5126L185.831 30.6602L153.213 154.933L105.937 135.688L94.1689 130.897L185.831 30.6602L76.9095 123.871Z" fill="url(#paint3_linear_19536_2507)"/>
  <path d="M60.0024 168.011L45.923 201.823L32.3785 193.851L55.9949 165.531C57.6958 163.524 61.0278 165.531 60.0024 168.011Z" fill="url(#paint4_linear_19536_2507)"/>
  <path d="M54.8305 154.888L22.3114 171.736L17.043 156.974L53.3604 150.603C55.9494 150.076 57.2527 153.712 54.8305 154.888Z" fill="url(#paint5_linear_19536_2507)"/>
  <defs>
    <linearGradient id="paint0_linear_19536_2507" x1="110" y1="210" x2="110" y2="10" gradientUnits="userSpaceOnUse">
      <stop stop-color="#DBE3ED"/>
      <stop offset="1" stop-color="#DBE3ED" stop-opacity="0.2"/>
    </linearGradient>
    <linearGradient id="paint1_linear_19536_2507" x1="114.372" y1="123.741" x2="95.5397" y2="160.336" gradientUnits="userSpaceOnUse">
      <stop stop-color="#8EA5BE"/>
      <stop offset="1" stop-color="#DBE3ED"/>
    </linearGradient>
    <linearGradient id="paint2_linear_19536_2507" x1="104.086" y1="90.0769" x2="122.267" y2="120.378" gradientUnits="userSpaceOnUse">
      <stop stop-color="#DBE3ED"/>
      <stop offset="1" stop-color="#8EA5BE"/>
    </linearGradient>
    <linearGradient id="paint3_linear_19536_2507" x1="169.984" y1="114.237" x2="87.0416" y2="92.7972" gradientUnits="userSpaceOnUse">
      <stop stop-color="#F8FAFB"/>
      <stop offset="1" stop-color="#DBE3ED"/>
    </linearGradient>
    <linearGradient id="paint4_linear_19536_2507" x1="100.962" y1="277.095" x2="50.7345" y2="155.219" gradientUnits="userSpaceOnUse">
      <stop stop-color="#F4F7F9"/>
      <stop offset="1" stop-color="#428BF9"/>
    </linearGradient>
    <linearGradient id="paint5_linear_19536_2507" x1="100.962" y1="277.095" x2="50.7345" y2="155.219" gradientUnits="userSpaceOnUse">
      <stop stop-color="#F4F7F9"/>
      <stop offset="1" stop-color="#428BF9"/>
    </linearGradient>
  </defs>
</svg>